<svg xmlns="http://www.w3.org/2000/svg" viewBox="0 0 113.67 50.25"><defs><style>.cls-1{fill:#e20613;}.cls-2{fill:#fff;stroke:#fff;stroke-miterlimit:10;stroke-width:0.5px;}</style></defs><g id="Capa_2" data-name="Capa 2"><g id="Desktop_Inicio" data-name="Desktop Inicio"><path class="cls-1" d="M21.78,31.57H16.6V16a25.92,25.92,0,0,1,.32-3.43L12.27,28.69H9.53L4.86,12.57A26.66,26.66,0,0,1,5.18,16V31.57H0V0H5.09l5.66,17.45a7.38,7.38,0,0,1,.14,1.43A11,11,0,0,1,11,17.45L16.69,0h5.09Z"/><path class="cls-1" d="M38.86,31.57H23.92V0h14.8V4.18H29.3V13.4h8.11v4.09H29.3V27.4h9.56Z"/><path class="cls-1" d="M46.28,31.57H40.89V0h5.39Z"/><path class="cls-1" d="M66.61,31.57h-6L53.83,17.49V31.57H48.44V0h5.39V13.36L59.81,0h5.9V.22l-7.32,15Z"/><path class="cls-1" d="M73.26,31.57H67.88V0h5.38Z"/><path class="cls-1" d="M93.68,31.57H89L80.32,11.7A10.64,10.64,0,0,1,80.67,14V31.57H75.42V0h4.72l8.63,19.47a10.5,10.5,0,0,1-.34-2.28V0h5.25Z"/><path class="cls-1" d="M113.67,28.69q0,2.88-3.3,2.88H99.05c-2.14,0-3.2-1-3.2-2.88V2.9Q95.85,0,99.12,0h11.25q3.3,0,3.3,2.9V9.64h-5.41V4.05h-7V27.52h7v-10h-4V13.4h9.42Z"/><path class="cls-2" d="M7.36,35.6a1.29,1.29,0,0,0,.46,1c-.56,0-1.09-.66-1.14-1.47-.13-2.57,3.61-5.2,7.1-5.4s5.7,1.61,5.8,4.77c.2,5.76-7.59,12.77-14.16,13.12-.76,0-2.25-.14-2.33-1.67-.1-1.88,2.45-4.67,5.09-6.09,0,0,0,0-.07.09-2,1.38-4.55,4-4.46,5.8,0,.73.93.81,1.44.78,5.67-.3,14-7.46,13.67-13.06a3.64,3.64,0,0,0-4-3.22C11,30.38,7.27,33.92,7.36,35.6Zm2.71,6.82a1.22,1.22,0,0,0,.72-.29,1.45,1.45,0,0,1-.84.79c-.16,0-.36-.15-.38-.49-.06-1.2,2.08-6.15,3.72-8.86.26-.44,1.06-1.74,1.57-1.76a.67.67,0,0,1,.3.06c.58.25.92,1,.71.8s-.48.06-.78.42a14.25,14.25,0,0,0-.89,1.3C12.49,37.07,10,41.69,10.07,42.42Z"/><path class="cls-2" d="M18.62,43.5a1.09,1.09,0,0,1-.56-.78c0-1,1.6-4.78,2.37-5.69a.21.21,0,0,1,.18-.11c.29,0,.84.63.86,1.06,0,.07-.06,0-.17,0-.52,0-2.06,3.92-2.18,4.63.76-.32,2.5-2.77,3.22-3.81.09-.09.16,0,.12.09-1,1.65-2.9,4.53-3.68,4.65A.3.3,0,0,1,18.62,43.5Zm3.81-8.74c.12.17.21.42.16.42a.3.3,0,0,0-.27,0,4.4,4.4,0,0,0-.89,1.15c-.17.32-.45,0-.48-.33a2.71,2.71,0,0,1,.71-1.77C22,34.19,22.25,34.52,22.43,34.76Z"/><path class="cls-2" d="M22.74,39.49c0,.3.28.55.42.7a9.52,9.52,0,0,1,3.73-2.11.1.1,0,0,1,.08.09,25.71,25.71,0,0,0-3.69,2.23,1.6,1.6,0,0,1,.5,1c-.12,1.11-1.75,2.1-2.58,2.14-.28,0-.43-.28-.52-.65,0-.74,1.8-2.26,2.23-2.52-.15-.23-.93-.8-.86-1.56a3.77,3.77,0,0,1,3-2.72c.36,0,.57.75.55,1.24,0,.24-.74,1.3-1.09,1.32,0,0,0-.07,0-.07A5.61,5.61,0,0,0,25.34,37C24.75,37,22.86,38.69,22.74,39.49ZM21,42.68c.49-.21,2-1.38,2-2A12.72,12.72,0,0,0,21,42.68Z"/><path class="cls-2" d="M25.64,42.08c0,.21.12.32.4.3.93,0,3.14-2.53,4.35-4,0,0,.13,0,.09.1-.89,1.24-3.25,4.61-4.95,4.7-.39,0-.93-.56-1-1A4.21,4.21,0,0,1,24.69,41a8.51,8.51,0,0,1,1.61-3,4.61,4.61,0,0,1,2.64-1.84,1.05,1.05,0,0,1,.83.82c.05,1.06-2.26,3.63-3.69,3.75A3.45,3.45,0,0,0,25.64,42.08Zm.59-1.71c1.1-.23,3.07-3.09,3.11-3.74A8.56,8.56,0,0,0,26.23,40.37Z"/><path class="cls-2" d="M33.22,41.84c.79-.33,2.49-2.75,3.25-3.81.07-.09.14,0,.11.09-1,1.67-2.95,4.58-3.72,4.62-.12,0-.26-.14-.41-.33a1.55,1.55,0,0,1-.26-.65c0-1,1.27-3.88,1.89-4.72a18.2,18.2,0,0,0-3.64,4.25c-.14.22-.29.49-.42.73-.32.56-.38,1-.19,1.13-.37.14-.7-.38-.82-.87a3.46,3.46,0,0,1,.27-1.38,25.7,25.7,0,0,1,1.08-2.64,10.75,10.75,0,0,1,1.24-2.17.19.19,0,0,1,.17-.1c.31,0,.82.62.85,1,0,.06-.06,0-.16,0s-.59.73-.95,1.41c-.54,1.08-1.14,2.38-1.3,2.86a5.9,5.9,0,0,1,.6-1c1.33-1.95,3.45-4.35,3.88-4.38s.76.88.62,1.08A19.31,19.31,0,0,0,33.22,41.84Zm-.67-7.32a.79.79,0,0,0-.76.65,1.35,1.35,0,0,1,1.09-1.67c.56,0,1.14.6,1.49.7a.87.87,0,0,0,.38,0,1.7,1.7,0,0,0,1.27-1c-.18.57-.85,1.83-1.67,1.72a8.21,8.21,0,0,1-1.28-.39A1.46,1.46,0,0,0,32.55,34.52Z"/><path class="cls-2" d="M40,35.85c-2.3.12-4.66,6-3.93,6.35S38.5,39.74,39.26,38a2.12,2.12,0,0,1-.18-.82c0-.17.38-.7.55-.73a.39.39,0,0,1,.3.16c.27.51.6.89,1.1.81.85-.15,1.29-.84,1.43-.83a2.46,2.46,0,0,1-1.14,1.14,2,2,0,0,1-.75.19.83.83,0,0,1-.38-.05c-.23,2.28-2.73,4.86-4.09,4.83-.59,0-1-.65-1-1.29-.14-2.77,2.5-5.68,4.51-5.79a.93.93,0,0,1,.79.25c.07.05,0,.05,0,.05A2.11,2.11,0,0,0,40,35.85Z"/><path class="cls-2" d="M47.9,39.2a91.63,91.63,0,0,0-3.33,8.56,17.54,17.54,0,0,1,3-4.43c.07,0,.07.1.07.1a19.25,19.25,0,0,0-3.31,6.51.17.17,0,0,1-.14.05c-.5.1-.74-.83-.72-1.13a10.52,10.52,0,0,1,.43-2,48.75,48.75,0,0,1,3.71-9.4c-1.2,1.81-2.86,4.45-3.61,4.7h-.1c-.21,0-.62-.42-.65-.83a12,12,0,0,1,1.23-3.86,9.74,9.74,0,0,1,1.17-2,.23.23,0,0,1,.18-.11c.3,0,.82.62.84,1.06,0,.07,0,0-.14,0s-.68.82-1.08,1.61a10.23,10.23,0,0,0-1.11,3.17,13.76,13.76,0,0,0,2.37-2.78c.63-.9,1.55-2.41,2.21-3.2a.28.28,0,0,1,.18-.11c.3,0,.83.64.85,1.06,0,.07-.05,0-.14,0s-.26.15-.42.41C48.89,37.31,48.42,38.25,47.9,39.2Z"/><path class="cls-2" d="M56.32,39.89c-1,.06-1.64-.27-1.68-.89,0-.92,1.73-2.38,2-2.39h0c-.38.33-1.66,1.5-1.62,2.25,0,.08.09.18.33.17a5.12,5.12,0,0,0,1.36-.29c1.93-4.55,5.05-9.87,6-9.92.46,0,1,.55,1.11,1.24a.4.4,0,0,0-.37-.22c-.75,0-3.27,4.29-5.25,8.27,3.8-1.81,8.9-5.84,8.76-8.56C67,28,65.29,27.14,63,27.25c-4.49.24-9.94,5.63-9.83,7.84a1.2,1.2,0,0,0,1,1.1s0,0-.21,0a1.4,1.4,0,0,1-1.68-1.53c-.13-2.31,4.19-7.59,10.77-7.93,1.38-.07,4.47.48,4.62,3.26C68,34.49,61,38.59,57.58,39.64c-1.08,2.29-1.86,4.29-1.82,5,0,.32,0,.58.24.62a.39.39,0,0,1-.2.06c-.34,0-.58-.39-.61-1A13,13,0,0,1,56.32,39.89Z"/><path class="cls-2" d="M68.55,36.46c-1.19,1.82-2.77,4.35-3.52,4.6h-.11c-.2,0-.62-.43-.64-.83a11.47,11.47,0,0,1,1.23-3.86,11.3,11.3,0,0,1,1.19-2.06.26.26,0,0,1,.17-.11c.31,0,.84.62.86,1.06,0,.07,0,0-.16,0s-.68.88-1.08,1.65a10.34,10.34,0,0,0-1.12,3.18,14.81,14.81,0,0,0,2.38-2.78c.62-.9,1.48-2.43,2.17-3.21a.28.28,0,0,1,.17-.1c.31,0,.83.62.85,1.05,0,.07,0,0-.16,0s-.24.17-.4.41-.5.91-.88,1.68a8.68,8.68,0,0,0-1,2.88c.79-.37,2.47-2.77,3.2-3.79.07-.09.14,0,.11.09-1,1.67-2.95,4.62-3.72,4.66a.35.35,0,0,1-.21-.09,1.25,1.25,0,0,1-.5-.81,3.89,3.89,0,0,1,.1-.74A13.29,13.29,0,0,1,68.55,36.46Z"/><path class="cls-2" d="M72,37.59c.91-1.68,3-4.11,3.73-3.82a2.07,2.07,0,0,1,.65.94c.08,1.52-2.17,5.78-3.93,5.87a1.09,1.09,0,0,1-1.11-.95c0-.08,0-.12,0-.07a.59.59,0,0,0,.51.47c1.28-.07,3.36-4.7,3.43-5.56a11.09,11.09,0,0,0-3.85,4.58c-.34.73-.81,1.74-.23,1.8a.34.34,0,0,1-.41-.07,1.42,1.42,0,0,1-.49-.65,4.23,4.23,0,0,1,.26-1.79,51.48,51.48,0,0,1,3.21-7.72,11.85,11.85,0,0,1,1.42-2.35,1,1,0,0,1,.47-.34c.71,0,1.26.94,1,.77s-.89.56-1.6,1.89A45.29,45.29,0,0,0,72,37.59Z"/><path class="cls-2" d="M79.64,29.58a9.36,9.36,0,0,1,1-1.6c.18-.21.34-.35.46-.36.71-.09,1.27.87,1,.7-.46-.25-1.21,1.39-1.72,2.33s-1,2-1.54,3.27a41.37,41.37,0,0,0-2.08,5.6c.55.06,2.52-2.82,3.22-3.77.08-.09.13,0,.1.09-.58,1-2.63,4.19-3.37,4.6a.34.34,0,0,1-.41,0,1.75,1.75,0,0,1-.5-.66.55.55,0,0,1-.05-.25c0-.51.47-2.19,1.86-5.51C78.3,32.29,79,30.77,79.64,29.58Z"/><path class="cls-2" d="M79.19,40.33a1.09,1.09,0,0,1-.56-.79c0-1,1.6-4.78,2.37-5.69a.24.24,0,0,1,.18-.11c.3,0,.84.64.86,1.06,0,.07-.06,0-.16,0-.53,0-2.07,3.92-2.19,4.62.76-.31,2.5-2.77,3.22-3.81.09-.09.16,0,.12.1-1,1.65-2.9,4.52-3.68,4.65ZM83,31.59c.12.16.21.41.16.41a.32.32,0,0,0-.27,0A4.24,4.24,0,0,0,82,33.19c-.17.31-.45,0-.48-.33a2.73,2.73,0,0,1,.71-1.78C82.52,31,82.82,31.34,83,31.59Z"/><path class="cls-2" d="M83.1,39.41c1.16-.23,3.18-2.63,4.35-4,0,0,.12,0,.09.08-1,1.43-3.32,4.63-4.9,4.72-.41,0-.89-.47-1-1a1.72,1.72,0,0,1,0-.51,7.09,7.09,0,0,1,1.25-3.08c1-1.43,2.21-2.38,3.12-2.42.29,0,.75.54.77.79a2.87,2.87,0,0,1-1,1.75,0,0,0,1,1-.06,0,5,5,0,0,0,.53-1.77C85,34,82.65,38,82.72,39.14A.3.3,0,0,0,83.1,39.41Z"/><path class="cls-2" d="M86.47,40a1.11,1.11,0,0,1-.56-.79c0-1,1.6-4.78,2.37-5.69a.21.21,0,0,1,.18-.11c.3,0,.84.64.86,1.06,0,.07-.06,0-.16,0-.53,0-2.07,3.92-2.19,4.62.76-.31,2.5-2.77,3.22-3.81.09-.09.16,0,.12.1-1,1.65-2.9,4.52-3.68,4.65Zm3.81-8.74c.12.16.21.41.16.41a.3.3,0,0,0-.27,0,4.29,4.29,0,0,0-.89,1.16c-.17.31-.45,0-.48-.34a2.71,2.71,0,0,1,.71-1.77C89.8,30.64,90.1,31,90.28,31.21Z"/><path class="cls-2" d="M94,33c.7-1.67,1.41-3.12,2-4.29a10.65,10.65,0,0,1,1-1.6c.18-.22.34-.36.46-.37.71-.09,1.27.87,1,.7-.45-.25-1.22,1.39-1.7,2.33s-1,2-1.54,3.27a44.54,44.54,0,0,0-2.17,5.67c.67-.1,2.76-3.12,3.28-3.84.08-.09.15,0,.11.09-.56,1-2.67,4.26-3.38,4.61a.44.44,0,0,1-.43-.05,1.23,1.23,0,0,1-.53-.86,11.76,11.76,0,0,1,.76-2.79c-.42.49-2.87,3.89-3.53,3.92-.23,0-.68-.72-.7-1.12a8,8,0,0,1,2.27-4.39,4.54,4.54,0,0,1,2.54-1.54A.68.68,0,0,1,94,33Zm-.11.24a.7.7,0,0,0-.53,0,6.3,6.3,0,0,0-2,2.08,10.74,10.74,0,0,0-1.73,3.41c.16.11,2.1-1.88,3.5-3.69Z"/><path class="cls-2" d="M98.72,36c-.36.53-2.69,3.51-3.22,3.54l-.12,0a1.91,1.91,0,0,1-.62-1.11c-.1-1.85,2.62-5.79,5-5.91a1,1,0,0,1,1.18,1,1.8,1.8,0,0,1-.2.81s0,0,0,0a1.56,1.56,0,0,0,.11-.62c0-.51-.28-.75-.66-.7a4.5,4.5,0,0,0-2.41,1.83,10.07,10.07,0,0,0-1.86,3.7.07.07,0,0,0,.09,0,20.42,20.42,0,0,0,2.72-2.8A19.42,19.42,0,0,1,99.94,34c.25-.18.73.73.69.94a8.87,8.87,0,0,0-1.44,2.84,1.94,1.94,0,0,0-.1.59c.78-.35,2.48-2.77,3.22-3.8.06-.08.13,0,.09.1-1,1.67-2.94,4.62-3.71,4.66a.38.38,0,0,1-.22-.1,1.17,1.17,0,0,1-.46-.77,3.25,3.25,0,0,1,.07-.63A8.26,8.26,0,0,1,98.72,36Z"/><path class="cls-2" d="M106.06,32.39c.71-1.67,1.42-3.12,2-4.29a9.88,9.88,0,0,1,1-1.6c.18-.22.34-.36.46-.37.71-.09,1.27.87,1,.7-.45-.25-1.22,1.39-1.71,2.33s-1,2-1.54,3.27a45.71,45.71,0,0,0-2.16,5.67c.67-.1,2.76-3.12,3.28-3.84.07-.09.14,0,.11.09-.56.95-2.68,4.26-3.38,4.6a.42.42,0,0,1-.43,0,1.23,1.23,0,0,1-.53-.86,11.24,11.24,0,0,1,.76-2.79c-.42.49-2.87,3.89-3.53,3.92-.23,0-.68-.73-.7-1.12A7.92,7.92,0,0,1,103,33.67a4.51,4.51,0,0,1,2.54-1.54A.63.63,0,0,1,106.06,32.39Zm-.1.24a.7.7,0,0,0-.53,0,6.41,6.41,0,0,0-2,2.08,10.47,10.47,0,0,0-1.72,3.4c.16.12,2.1-1.87,3.5-3.68Z"/></g></g></svg>